<?xml version="1.0" encoding="UTF-8"?>
<svg xmlns="http://www.w3.org/2000/svg" xmlns:xlink="http://www.w3.org/1999/xlink" viewBox="0 0 1365.75 1365.75">
  <defs>
    <style>
      .cls-1 {
        fill: url(#Unnamed_Pattern_5);
      }

      .cls-2 {
        stroke: #e0b151;
        stroke-miterlimit: 10;
      }

      .cls-2, .cls-3 {
        fill: none;
      }
    </style>
    <pattern id="Unnamed_Pattern_5" data-name="Unnamed Pattern 5" x="0" y="0" width="53" height="62" patternTransform="translate(9408.98 8549.06) scale(2.15)" patternUnits="userSpaceOnUse" viewBox="0 0 53 62">
      <g>
        <rect class="cls-3" x="0" width="53" height="62"/>
        <g>
          <g>
            <line class="cls-2" x1="53" y1="48.61" x2="53" y2="75.38"/>
            <line class="cls-2" x1="79.32" y1="62" x2="53" y2="88.32"/>
          </g>
          <polygon class="cls-2" points="79.32 62 53 35.68 26.68 62 53 88.32 79.32 62"/>
          <polygon class="cls-2" points="59.58 42.26 53 35.68 46.42 42.26 53 48.84 59.58 42.26"/>
          <g>
            <line class="cls-2" x1="48.07" y1="43.91" x2="51.68" y2="76.48"/>
            <line class="cls-2" x1="42.47" y1="46.21" x2="50.37" y2="77.79"/>
            <line class="cls-2" x1="37.21" y1="51.47" x2="49.05" y2="79.11"/>
            <line class="cls-2" x1="31.95" y1="56.74" x2="47.74" y2="80.42"/>
            <line class="cls-2" x1="26.68" y1="62" x2="53" y2="88.32"/>
          </g>
        </g>
        <g>
          <g>
            <line class="cls-2" y1="48.61" y2="75.38"/>
            <line class="cls-2" x1="4.93" y1="43.91" x2="1.32" y2="76.48"/>
            <line class="cls-2" x1="10.53" y1="46.21" x2="2.63" y2="77.79"/>
            <line class="cls-2" x1="15.79" y1="51.47" x2="3.95" y2="79.11"/>
            <line class="cls-2" x1="21.05" y1="56.74" x2="5.26" y2="80.42"/>
            <line class="cls-2" x1="26.32" y1="62" y2="88.32"/>
          </g>
          <polygon class="cls-2" points="26.32 62 0 35.68 -26.32 62 0 88.32 26.32 62"/>
          <polygon class="cls-2" points="6.58 42.26 0 35.68 -6.58 42.26 0 48.84 6.58 42.26"/>
          <line class="cls-2" x1="-26.32" y1="62" y2="88.32"/>
        </g>
        <g>
          <polygon class="cls-2" points="105.82 31 79.5 4.68 53.18 31 79.5 57.32 105.82 31"/>
          <line class="cls-2" x1="53.18" y1="31" x2="79.5" y2="57.32"/>
        </g>
        <g>
          <g>
            <line class="cls-2" x1="26.5" y1="17.61" x2="26.5" y2="44.38"/>
            <line class="cls-2" x1="31.43" y1="12.91" x2="27.82" y2="45.48"/>
            <line class="cls-2" x1="37.03" y1="15.21" x2="29.13" y2="46.79"/>
            <line class="cls-2" x1="42.29" y1="20.47" x2="30.45" y2="48.11"/>
            <line class="cls-2" x1="47.55" y1="25.74" x2="31.76" y2="49.42"/>
            <line class="cls-2" x1="52.82" y1="31" x2="26.5" y2="57.32"/>
          </g>
          <polygon class="cls-2" points="52.82 31 26.5 4.68 .18 31 26.5 57.32 52.82 31"/>
          <polygon class="cls-2" points="33.08 50.74 26.5 44.16 19.92 50.74 26.5 57.32 33.08 50.74"/>
          <polygon class="cls-2" points="33.08 11.26 26.5 4.68 19.92 11.26 26.5 17.84 33.08 11.26"/>
          <g>
            <line class="cls-2" x1="21.57" y1="12.91" x2="25.18" y2="45.48"/>
            <line class="cls-2" x1="15.97" y1="15.21" x2="23.87" y2="46.79"/>
            <line class="cls-2" x1="10.71" y1="20.47" x2="22.55" y2="48.11"/>
            <line class="cls-2" x1="5.45" y1="25.74" x2="21.24" y2="49.42"/>
            <line class="cls-2" x1=".18" y1="31" x2="26.5" y2="57.32"/>
          </g>
        </g>
        <g>
          <line class="cls-2" x1="-.18" y1="31" x2="-26.5" y2="57.32"/>
          <polygon class="cls-2" points="-.18 31 -26.5 4.68 -52.82 31 -26.5 57.32 -.18 31"/>
        </g>
        <g>
          <g>
            <line class="cls-2" x1="53" y1="-13.39" x2="53" y2="13.38"/>
            <line class="cls-2" x1="79.32" x2="53" y2="26.32"/>
          </g>
          <polygon class="cls-2" points="79.32 0 53 -26.32 26.68 0 53 26.32 79.32 0"/>
          <polygon class="cls-2" points="59.58 19.74 53 13.16 46.42 19.74 53 26.32 59.58 19.74"/>
          <g>
            <line class="cls-2" x1="48.07" y1="-18.09" x2="51.68" y2="14.48"/>
            <line class="cls-2" x1="42.47" y1="-15.79" x2="50.37" y2="15.79"/>
            <line class="cls-2" x1="37.21" y1="-10.53" x2="49.05" y2="17.11"/>
            <line class="cls-2" x1="31.95" y1="-5.26" x2="47.74" y2="18.42"/>
            <line class="cls-2" x1="26.68" x2="53" y2="26.32"/>
          </g>
        </g>
        <g>
          <g>
            <line class="cls-2" y1="-13.39" y2="13.38"/>
            <line class="cls-2" x1="4.93" y1="-18.09" x2="1.32" y2="14.48"/>
            <line class="cls-2" x1="10.53" y1="-15.79" x2="2.63" y2="15.79"/>
            <line class="cls-2" x1="15.79" y1="-10.53" x2="3.95" y2="17.11"/>
            <line class="cls-2" x1="21.05" y1="-5.26" x2="5.26" y2="18.42"/>
            <line class="cls-2" x1="26.32" y2="26.32"/>
          </g>
          <polygon class="cls-2" points="26.32 0 0 -26.32 -26.32 0 0 26.32 26.32 0"/>
          <polygon class="cls-2" points="6.58 19.74 0 13.16 -6.58 19.74 0 26.32 6.58 19.74"/>
          <line class="cls-2" x1="-26.32" y2="26.32"/>
        </g>
      </g>
    </pattern>
  </defs>
  <g id="Capa_2" data-name="Capa 2">
    <rect width="1365.75" height="1365.75"/>
  </g>
  <g id="Capa_1" data-name="Capa 1">
    <rect class="cls-1" width="1365.75" height="1365.75"/>
  </g>
</svg>